<svg width="16" height="19" viewBox="0 0 16 19" fill="none" xmlns="http://www.w3.org/2000/svg">
    <path
        d="M7.54482 6.78682C7.82805 6.78682 8.06779 6.68869 8.26406 6.49243C8.46032 6.29616 8.55845 6.05642 8.55845 5.77319C8.55845 5.48996 8.46032 5.25022 8.26406 5.05395C8.06779 4.85769 7.82805 4.75956 7.54482 4.75956C7.26159 4.75956 7.02185 4.85769 6.82558 5.05395C6.62932 5.25022 6.53119 5.48996 6.53119 5.77319C6.53119 6.05642 6.62932 6.29616 6.82558 6.49243C7.02185 6.68869 7.26159 6.78682 7.54482 6.78682V6.78682M7.54688 11.5464C7.01119 11.5464 6.52701 11.3939 6.09433 11.0889C5.66166 10.784 5.356 10.3759 5.17737 9.86466C5.10098 9.88229 5.02489 9.89492 4.94909 9.90256C4.87328 9.9102 4.79425 9.91402 4.71199 9.91402C4.0194 9.91402 3.42671 9.66958 2.93391 9.18069C2.4411 8.69181 2.1947 8.1001 2.1947 7.40555C2.1947 7.1094 2.24965 6.82382 2.35953 6.54883C2.46941 6.27383 2.62248 6.01528 2.81874 5.77319C2.63188 5.5311 2.48498 5.27255 2.37804 4.99755C2.27109 4.72256 2.21762 4.43698 2.21762 4.14083C2.21762 3.44628 2.46041 2.85457 2.94598 2.36569C3.43154 1.8768 4.02021 1.63236 4.71199 1.63236C4.79425 1.63236 4.87328 1.63618 4.94909 1.64382C5.02489 1.65146 5.10392 1.66116 5.18619 1.67291C5.36482 1.16757 5.66831 0.762416 6.09668 0.457449C6.52504 0.152483 7.00775 0 7.54482 0C8.08189 0 8.5646 0.152483 8.99296 0.457449C9.42133 0.762416 9.72482 1.16757 9.90345 1.67291C9.98572 1.66116 10.0648 1.65146 10.1406 1.64382C10.2164 1.63618 10.2954 1.63236 10.3777 1.63236C11.0694 1.63236 11.6581 1.8768 12.1437 2.36569C12.6292 2.85457 12.872 3.44628 12.872 4.14083C12.872 4.43904 12.8209 4.7266 12.7187 5.0035C12.6164 5.28041 12.4672 5.53697 12.2709 5.77319C12.4578 6.01528 12.6047 6.27383 12.7116 6.54883C12.8185 6.82382 12.872 7.1094 12.872 7.40555C12.872 8.1001 12.6292 8.69181 12.1437 9.18069C11.6581 9.66958 11.0694 9.91402 10.3777 9.91402C10.2954 9.91402 10.2164 9.9102 10.1406 9.90256C10.0648 9.89492 9.98278 9.88229 9.89464 9.86466C9.72188 10.3759 9.42133 10.784 8.99296 11.0889C8.5646 11.3939 8.08258 11.5464 7.54688 11.5464V11.5464M7.54482 18.0776C7.54482 17.0822 7.75078 16.1297 8.16269 15.2201C8.5746 14.3105 9.12841 13.5079 9.82414 12.8121C10.5199 12.1164 11.3225 11.5626 12.2321 11.1507C13.1417 10.7388 14.0942 10.5328 15.0896 10.5328C15.0896 11.5282 14.8837 12.4807 14.4718 13.3903C14.0599 14.2999 13.506 15.1026 12.8103 15.7983C12.1146 16.494 11.3119 17.0479 10.4023 17.4598C9.49272 17.8717 8.54022 18.0776 7.54482 18.0776V18.0776M9.19125 16.4312C10.2266 16.1104 11.1139 15.5804 11.8531 14.8411C12.5924 14.1019 13.1224 13.2146 13.4432 12.1792C12.4078 12.5001 11.5205 13.0301 10.7813 13.7693C10.0421 14.5085 9.51208 15.3958 9.19125 16.4312V16.4312M7.54482 18.0776C7.54482 17.0822 7.33886 16.1297 6.92695 15.2201C6.51504 14.3105 5.96123 13.5079 5.2655 12.8121C4.56978 12.1164 3.76712 11.5626 2.85751 11.1507C1.9479 10.7388 0.995396 10.5328 0 10.5328C0 11.5282 0.205955 12.4807 0.617866 13.3903C1.02978 14.2999 1.58359 15.1026 2.27932 15.7983C2.97504 16.494 3.7777 17.0479 4.68731 17.4598C5.59692 17.8717 6.54942 18.0776 7.54482 18.0776V18.0776M5.89839 16.4312C4.86301 16.1104 3.97572 15.5804 3.2365 14.8411C2.49729 14.1019 1.96726 13.2146 1.64643 12.1792C2.68181 12.5001 3.5691 13.0301 4.30832 13.7693C5.04753 14.5085 5.57756 15.3958 5.89839 16.4312V16.4312M9.19125 16.4312V16.4312V16.4312V16.4312V16.4312V16.4312M5.89839 16.4312V16.4312V16.4312V16.4312V16.4312V16.4312M10.3777 8.53905C10.6898 8.53905 10.9567 8.42799 11.1785 8.20588C11.4003 7.98376 11.5112 7.7164 11.5112 7.40379C11.5112 7.17345 11.4465 6.96631 11.3172 6.78239C11.188 6.59847 11.017 6.47243 10.8043 6.40427L9.90521 6.10283C9.87936 6.25675 9.84058 6.40716 9.78887 6.55408C9.73716 6.701 9.67311 6.84027 9.59672 6.9719C9.52033 7.10352 9.43454 7.22457 9.33935 7.33503C9.24416 7.4455 9.13545 7.54833 9.01323 7.64353L9.70249 8.26757C9.79063 8.35219 9.89072 8.41859 10.0028 8.46677C10.1148 8.51496 10.2398 8.53905 10.3777 8.53905V8.53905M9.90521 5.44355L10.8043 5.14211C11.017 5.07395 11.1856 4.94569 11.3102 4.75732C11.4348 4.56894 11.4971 4.36345 11.4971 4.14083C11.4971 3.82871 11.3893 3.56176 11.1737 3.33999C10.9581 3.11821 10.6927 3.00733 10.3777 3.00733C10.2366 3.00733 10.1132 3.03142 10.0075 3.07961C9.90169 3.12779 9.80003 3.19419 9.70249 3.27881L8.99913 3.90285C9.12135 3.99805 9.23241 4.10088 9.3323 4.21135C9.43219 4.32182 9.52033 4.44286 9.59672 4.57448C9.67311 4.70611 9.73716 4.84538 9.78887 4.9923C9.84058 5.13922 9.87936 5.28964 9.90521 5.44355V5.44355M6.66694 3.55911C6.80992 3.50388 6.95291 3.46098 7.09589 3.43043C7.23887 3.39987 7.38901 3.38459 7.54629 3.38459C7.70357 3.38459 7.8537 3.39987 7.99669 3.43043C8.13967 3.46098 8.28168 3.50388 8.4227 3.55911L8.66951 2.48197C8.73532 2.1882 8.64865 1.93026 8.40949 1.70814C8.17033 1.48602 7.88211 1.37497 7.54482 1.37497C7.20753 1.37497 6.91931 1.48602 6.68015 1.70814C6.44099 1.93026 6.35432 2.1882 6.42014 2.48197L6.66694 3.55911V3.55911M7.54482 10.1714C7.88211 10.1714 8.17033 10.0604 8.40949 9.83824C8.64865 9.61612 8.73532 9.35818 8.66951 9.06441L8.4227 7.98727C8.28168 8.04838 8.13967 8.09274 7.99669 8.12036C7.8537 8.14798 7.70357 8.16179 7.54629 8.16179C7.38901 8.16179 7.23838 8.14798 7.09442 8.12036C6.95046 8.09274 6.80796 8.04838 6.66694 7.98727L6.42014 9.06441C6.35432 9.35818 6.44099 9.61612 6.68015 9.83824C6.91931 10.0604 7.20753 10.1714 7.54482 10.1714V10.1714M5.18443 5.44355C5.21028 5.28964 5.24906 5.13922 5.30077 4.9923C5.35248 4.84538 5.41653 4.70611 5.49292 4.57448C5.56931 4.44286 5.6551 4.32182 5.75029 4.21135C5.84548 4.10088 5.95419 3.99805 6.07641 3.90285L5.38715 3.27881C5.29901 3.19419 5.19892 3.12779 5.08688 3.07961C4.97484 3.03142 4.84988 3.00733 4.71199 3.00733C4.39986 3.00733 4.13291 3.11821 3.91114 3.33999C3.68937 3.56176 3.57849 3.82871 3.57849 4.14083C3.57849 4.36345 3.64312 4.56894 3.7724 4.75732C3.90167 4.94569 4.07267 5.07395 4.28538 5.14211L5.18443 5.44355V5.44355M4.71199 8.52495C4.85184 8.52495 4.97641 8.50321 5.08571 8.45972C5.195 8.41624 5.29548 8.34749 5.38715 8.25347L6.09051 7.64353C5.96829 7.54833 5.85723 7.4455 5.75734 7.33503C5.65745 7.22457 5.56931 7.10352 5.49292 6.9719C5.41653 6.84027 5.35248 6.701 5.30077 6.55408C5.24906 6.40716 5.21028 6.25675 5.18443 6.10283L4.28538 6.40427C4.07267 6.47243 3.90255 6.60069 3.77504 6.78906C3.64753 6.97744 3.58377 7.18293 3.58377 7.40555C3.59317 7.71934 3.70511 7.98435 3.91959 8.20059C4.13407 8.41683 4.3982 8.52495 4.71199 8.52495V8.52495M9.59672 6.9719V6.9719V6.9719V6.9719V6.9719V6.9719V6.9719V6.9719V6.9719V6.9719V6.9719V6.9719V6.9719V6.9719M9.59672 4.57448V4.57448V4.57448V4.57448V4.57448V4.57448V4.57448V4.57448V4.57448V4.57448V4.57448V4.57448V4.57448V4.57448M7.54482 3.38459V3.38459V3.38459V3.38459V3.38459V3.38459V3.38459V3.38459V3.38459V3.38459V3.38459V3.38459M7.54482 8.16179V8.16179V8.16179V8.16179V8.16179V8.16179V8.16179V8.16179V8.16179V8.16179V8.16179V8.16179M5.49292 4.57448V4.57448V4.57448V4.57448V4.57448V4.57448V4.57448V4.57448V4.57448V4.57448V4.57448V4.57448V4.57448V4.57448M5.49292 6.9719V6.9719V6.9719V6.9719V6.9719V6.9719V6.9719V6.9719V6.9719V6.9719V6.9719V6.9719V6.9719V6.9719"
        fill="#A1A1AA" />
</svg>
