<svg width="17" height="17" viewBox="0 0 17 17" fill="none" xmlns="http://www.w3.org/2000/svg">
    <path
        d="M10.8 16.2L5.4 14.31L1.215 15.93C0.915 16.05 0.6375 16.0162 0.3825 15.8287C0.1275 15.6412 0 15.39 0 15.075V2.475C0 2.28 0.05625 2.1075 0.16875 1.9575C0.28125 1.8075 0.435 1.695 0.63 1.62L5.4 0L10.8 1.89L14.985 0.27C15.285 0.15 15.5625 0.18375 15.8175 0.37125C16.0725 0.55875 16.2 0.81 16.2 1.125V13.725C16.2 13.92 16.1437 14.0925 16.0312 14.2425C15.9187 14.3925 15.765 14.505 15.57 14.58L10.8 16.2V16.2M9.9 13.995V3.465L6.3 2.205V12.735L9.9 13.995V13.995M11.7 13.995L14.4 13.095V2.43L11.7 3.465V13.995V13.995M1.8 13.77L4.5 12.735V2.205L1.8 3.105V13.77V13.77M11.7 3.465V3.465V13.995V13.995V3.465V3.465M4.5 2.205V2.205V12.735V12.735V2.205V2.205"
        fill="#A1A1AA" />
</svg>
