<svg width="20" height="20" viewBox="0 0 20 20" fill="none" xmlns="http://www.w3.org/2000/svg">
    <path
        d="M13.2 19.8L6.6 17.49L1.485 19.47C1.11833 19.6167 0.779167 19.5754 0.4675 19.3462C0.155833 19.1171 0 18.81 0 18.425V3.025C0 2.78667 0.06875 2.57583 0.20625 2.3925C0.34375 2.20917 0.531667 2.07167 0.77 1.98L6.6 0L13.2 2.31L18.315 0.33C18.6817 0.183333 19.0208 0.224583 19.3325 0.45375C19.6442 0.682917 19.8 0.99 19.8 1.375V16.775C19.8 17.0133 19.7313 17.2242 19.5938 17.4075C19.4563 17.5908 19.2683 17.7283 19.03 17.82L13.2 19.8ZM12.1 17.105V4.235L7.7 2.695V15.565L12.1 17.105Z"
        fill="#8B4C50" />
</svg>
